<svg xmlns="http://www.w3.org/2000/svg" width="1100" height="842" viewBox="0 0 1100 842" font-family="sans-serif">
<defs><pattern id="eof-radar-couche-declaree" width="9" height="9" patternUnits="userSpaceOnUse" patternTransform="rotate(45)"><line x1="0" y1="0" x2="0" y2="9" stroke="#2D4675" stroke-width="2.5"/></pattern></defs>
<rect width="1100" height="842" fill="white"/>
<text x="550.0" y="30" text-anchor="middle" font-size="18" font-weight="bold">Radar EROOM : aucune réponse vs hors périmètre (valeurs fictives)</text>
<circle cx="550.0" cy="360" r="55.0" fill="none" stroke="#ccc" stroke-width="1"/>
<circle cx="550.0" cy="360" r="110.0" fill="none" stroke="#ccc" stroke-width="1"/>
<circle cx="550.0" cy="360" r="165.0" fill="none" stroke="#ccc" stroke-width="1"/>
<circle cx="550.0" cy="360" r="220.0" fill="none" stroke="#333" stroke-width="1"/>
<line x1="550.0" y1="360" x2="550.0" y2="140.0" stroke="#999" stroke-width="1"/>
<line x1="550.0" y1="360" x2="740.5" y2="250.0" stroke="#999" stroke-width="1"/>
<line x1="550.0" y1="360" x2="740.5" y2="470.0" stroke="#999" stroke-width="1"/>
<line x1="550.0" y1="360" x2="550.0" y2="580.0" stroke="#999" stroke-width="1"/>
<line x1="550.0" y1="360" x2="359.5" y2="470.0" stroke="#999" stroke-width="1"/>
<line x1="550.0" y1="360" x2="359.5" y2="250.0" stroke="#999" stroke-width="1"/>
<text x="550.0" y="85.0" text-anchor="middle" font-size="14" font-weight="bold" fill="#222">🛖 Produit</text>
<text x="550.0" y="103.0" text-anchor="middle" font-size="13" font-weight="bold" fill="#2D4675">35,0 % de potentiel</text>
<text x="550.0" y="119.0" text-anchor="middle" font-size="12" fill="#5F5F5F">16 critères renseignés sur 16</text>
<text x="788.2" y="222.5" text-anchor="start" font-size="14" font-weight="bold" fill="#222">🗺️ Architecture</text>
<text x="788.2" y="240.5" text-anchor="start" font-size="13" font-weight="bold" fill="#2D4675">55,0 % de potentiel</text>
<text x="788.2" y="256.5" text-anchor="start" font-size="12" fill="#5F5F5F">3 critères renseignés sur 5</text>
<text x="788.2" y="497.5" text-anchor="start" font-size="14" font-weight="bold" fill="#222">🏢 Infrastructure</text>
<text x="788.2" y="515.5" text-anchor="start" font-size="13" font-weight="bold" fill="#2D4675">15,0 % de potentiel</text>
<text x="788.2" y="531.5" text-anchor="start" font-size="12" fill="#5F5F5F">8 critères renseignés sur 8</text>
<text x="550.0" y="635.0" text-anchor="middle" font-size="14" font-weight="bold" fill="#222">💾 Stockage &amp; Données</text>
<text x="550.0" y="653.0" text-anchor="middle" font-size="13" font-weight="bold" fill="#5F5F5F">hors périmètre</text>
<text x="550.0" y="669.0" text-anchor="middle" font-size="12" fill="#5F5F5F">6 critères écartés</text>
<text x="311.8" y="497.5" text-anchor="end" font-size="14" font-weight="bold" fill="#222">👨‍💻 Algo &amp; Code</text>
<text x="311.8" y="515.5" text-anchor="end" font-size="13" font-weight="bold" fill="#2D4675">50,0 % de potentiel</text>
<text x="311.8" y="531.5" text-anchor="end" font-size="12" fill="#5F5F5F">5 critères renseignés sur 9</text>
<text x="311.8" y="222.5" text-anchor="end" font-size="14" font-weight="bold" fill="#222">🛠 Facilité de changement</text>
<text x="311.8" y="240.5" text-anchor="end" font-size="13" font-weight="bold" fill="#5F5F5F">aucune réponse</text>
<text x="311.8" y="256.5" text-anchor="end" font-size="12" fill="#5F5F5F">aucun critère renseigné sur 10</text>
<polygon points="550.0,283.0 654.8,299.5 578.6,376.5 550.0,360.0 454.7,415.0 550.0,360.0" fill="none" stroke="#2D4675" stroke-width="2.5" stroke-dasharray="7 4"/>
<path d="M550.0,283.0 L654.8,299.5 L578.6,376.5 L550.0,360.0 L454.7,415.0 L550.0,360.0 Z M550.0,283.0 L641.5,307.2 L572.9,373.2 L550.0,360.0 L530.9,371.0 L550.0,360.0 Z" fill="url(#eof-radar-couche-declaree)" fill-rule="evenodd" stroke="none"/>
<polygon points="550.0,283.0 641.5,307.2 572.9,373.2 550.0,360.0 530.9,371.0 550.0,360.0" fill="#2D4675" fill-opacity="0.40" stroke="#2D4675" stroke-width="2.5"/>
<text x="556.0" y="301.0" font-size="12" fill="#000" paint-order="stroke" stroke="white" stroke-width="1.5">25 %</text>
<text x="556.0" y="246.0" font-size="12" fill="#000" paint-order="stroke" stroke="white" stroke-width="1.5">50 %</text>
<text x="556.0" y="191.0" font-size="12" fill="#000" paint-order="stroke" stroke="white" stroke-width="1.5">75 %</text>
<text x="556.0" y="136.0" font-size="12" fill="#000" paint-order="stroke" stroke="white" stroke-width="1.5">100 %</text>
<circle cx="550.0" cy="283.0" r="6" fill="#2D4675" stroke="white" stroke-width="1.5"><title>🛖 Produit : 35,0 % de potentiel d'optimisation</title></circle>
<circle cx="654.8" cy="299.5" r="6" fill="#2D4675" stroke="white" stroke-width="1.5"><title>🗺️ Architecture : 55,0 % de potentiel d'optimisation</title></circle>
<circle cx="641.5" cy="307.2" r="4.5" fill="white" stroke="#2D4675" stroke-width="2"><title>🗺️ Architecture : 55,0 % de potentiel d'optimisation au total, dont 7,0 % de marge d'incertitude (déduction depuis un indice faible)</title></circle>
<circle cx="578.6" cy="376.5" r="6" fill="#2D4675" stroke="white" stroke-width="1.5"><title>🏢 Infrastructure : 15,0 % de potentiel d'optimisation</title></circle>
<circle cx="572.9" cy="373.2" r="4.5" fill="white" stroke="#2D4675" stroke-width="2"><title>🏢 Infrastructure : 15,0 % de potentiel d'optimisation au total, dont 3,0 % de marge d'incertitude (déduction depuis un indice faible)</title></circle>
<circle cx="550.0" cy="360.0" r="5" fill="white" stroke="#5F5F5F" stroke-width="2"><title>💾 Stockage &amp; Données : hors périmètre, ne concerne pas ce service</title></circle>
<circle cx="454.7" cy="415.0" r="6" fill="#2D4675" stroke="white" stroke-width="1.5"><title>👨‍💻 Algo &amp; Code : 50,0 % de potentiel d'optimisation</title></circle>
<circle cx="530.9" cy="371.0" r="4.5" fill="white" stroke="#2D4675" stroke-width="2"><title>👨‍💻 Algo &amp; Code : 50,0 % de potentiel d'optimisation au total, dont 40,0 % de marge d'incertitude (déduction depuis un indice faible)</title></circle>
<circle cx="550.0" cy="360.0" r="5" fill="white" stroke="#5F5F5F" stroke-width="2"><title>🛠 Facilité de changement : aucune réponse, ce n'est pas un 0 %</title></circle>
<rect x="24" y="46" width="16" height="14" fill="#2D4675" fill-opacity="0.40" stroke="#2D4675" stroke-width="1.5"/>
<text x="48" y="58" font-size="12" fill="#222">en plein : potentiel retenu (mesuré, déduit ou indiqué par le service)</text>
<rect x="24" y="68" width="16" height="14" fill="url(#eof-radar-couche-declaree)" stroke="#2D4675" stroke-width="1.5"/>
<text x="48" y="80" font-size="12" fill="#222">en hachuré : marge d'incertitude (déduction depuis un indice faible)</text>
<text x="550.0" y="700" text-anchor="middle" font-size="12" fill="#222">Renseigné à ce jour : 29 % du potentiel maximum du référentiel (32 critères sur 48)</text>
<rect x="270.0" y="708" width="560" height="14" fill="#EEE" stroke="#5F5F5F" stroke-width="1"/>
<rect x="270.0" y="708" width="163.0" height="14" fill="#2D4675"/>
<text x="550.0" y="748" text-anchor="middle" font-size="12" fill="#5F5F5F">Provenance des réponses : collecte 13, estimation 6, déclaré 8, précisé 1, supposé 4</text>
<text x="550.0" y="766" text-anchor="middle" font-size="12" fill="#666">Deux façons différentes de ne pas remplir un axe : "Stockage &amp; Données" est hors périmètre (les 6 critères</text>
<text x="550.0" y="784" text-anchor="middle" font-size="12" fill="#666">sont écartés, la dimension ne concerne pas ce service), "Facilité de changement" reste sans réponse (nous</text>
<text x="550.0" y="802" text-anchor="middle" font-size="12" fill="#666">n'avons pas su l'instruire). Les autres axes reprennent les valeurs corrigées du radar de référence. Valeurs</text>
<text x="550.0" y="820" text-anchor="middle" font-size="12" fill="#666">fictives, uniquement pour comparer le rendu visuel.</text>
</svg>